<svg width="48" height="48" viewBox="0 0 48 48" fill="none" xmlns="http://www.w3.org/2000/svg">
<path d="M13 15V11C13 10.7348 12.8946 10.4804 12.7071 10.2929C12.5196 10.1054 12.2652 10 12 10H9C8.73478 10 8.48043 10.1054 8.29289 10.2929C8.10536 10.4804 8 10.7348 8 11V15H13Z" fill="#eff2f2" id="id_101" class=""></path>
<path d="M41 13H35.07C34.7407 12.9999 34.4166 12.9186 34.1263 12.7631C33.836 12.6077 33.5886 12.383 33.406 12.109L31.187 8.781C30.8217 8.23315 30.3268 7.78395 29.7463 7.47326C29.1657 7.16257 28.5175 7.00001 27.859 7H20.141C19.4825 7.00001 18.8343 7.16257 18.2537 7.47326C17.6732 7.78395 17.1783 8.23315 16.813 8.781L14.594 12.109C14.4114 12.383 14.164 12.6077 13.8737 12.7631C13.5834 12.9186 13.2593 12.9999 12.93 13H7C5.93913 13 4.92172 13.4214 4.17157 14.1716C3.42143 14.9217 3 15.9391 3 17V37C3 38.0609 3.42143 39.0783 4.17157 39.8284C4.92172 40.5786 5.93913 41 7 41H41C42.0609 41 43.0783 40.5786 43.8284 39.8284C44.5786 39.0783 45 38.0609 45 37V17C45 15.9391 44.5786 14.9217 43.8284 14.1716C43.0783 13.4214 42.0609 13 41 13V13Z" fill="#b6d3d9" id="id_102" class=""></path>
<path d="M24 37C30.3513 37 35.5 31.8513 35.5 25.5C35.5 19.1487 30.3513 14 24 14C17.6487 14 12.5 19.1487 12.5 25.5C12.5 31.8513 17.6487 37 24 37Z" fill="#8FA5A5" id="id_103"></path>
<path d="M24 33C28.1421 33 31.5 29.6421 31.5 25.5C31.5 21.3579 28.1421 18 24 18C19.8579 18 16.5 21.3579 16.5 25.5C16.5 29.6421 19.8579 33 24 33Z" fill="#e7eef0" id="id_104" class=""></path>
<path d="M24 13C21.5277 13 19.111 13.7331 17.0554 15.1066C14.9998 16.4801 13.3976 18.4324 12.4515 20.7165C11.5054 23.0005 11.2579 25.5139 11.7402 27.9386C12.2225 30.3634 13.413 32.5907 15.1612 34.3388C16.9093 36.087 19.1366 37.2775 21.5614 37.7598C23.9861 38.2421 26.4995 37.9946 28.7835 37.0485C31.0676 36.1024 33.0199 34.5002 34.3934 32.4446C35.7669 30.389 36.5 27.9723 36.5 25.5C36.4963 22.1859 35.1782 19.0087 32.8347 16.6653C30.4913 14.3219 27.3141 13.0037 24 13V13ZM24 36C21.9233 36 19.8932 35.3842 18.1665 34.2304C16.4398 33.0767 15.094 31.4368 14.2993 29.5182C13.5046 27.5996 13.2966 25.4884 13.7018 23.4516C14.1069 21.4148 15.1069 19.5438 16.5754 18.0754C18.0438 16.6069 19.9148 15.6069 21.9516 15.2018C23.9884 14.7966 26.0996 15.0045 28.0182 15.7993C29.9368 16.594 31.5767 17.9398 32.7304 19.6665C33.8842 21.3932 34.5 23.4233 34.5 25.5C34.4968 28.2838 33.3896 30.9527 31.4211 32.9211C29.4527 34.8896 26.7838 35.9968 24 36V36Z" fill="#ffffff" id="id_105" class=""></path>
<path d="M24 17C22.3189 17 20.6755 17.4985 19.2777 18.4325C17.8798 19.3665 16.7904 20.694 16.147 22.2472C15.5037 23.8004 15.3354 25.5094 15.6633 27.1583C15.9913 28.8071 16.8008 30.3217 17.9896 31.5104C19.1783 32.6992 20.6929 33.5087 22.3417 33.8367C23.9906 34.1646 25.6996 33.9963 27.2528 33.353C28.806 32.7096 30.1335 31.6202 31.0675 30.2223C32.0015 28.8245 32.5 27.1811 32.5 25.5C32.4974 23.2465 31.601 21.086 30.0075 19.4925C28.414 17.899 26.2535 17.0026 24 17ZM24 32C22.7144 32 21.4577 31.6188 20.3888 30.9046C19.3199 30.1903 18.4868 29.1752 17.9948 27.9874C17.5028 26.7997 17.3741 25.4928 17.6249 24.2319C17.8757 22.971 18.4948 21.8128 19.4038 20.9038C20.3129 19.9948 21.471 19.3757 22.7319 19.1249C23.9928 18.8741 25.2997 19.0028 26.4874 19.4948C27.6752 19.9868 28.6903 20.8199 29.4046 21.8888C30.1188 22.9577 30.5 24.2144 30.5 25.5C30.4979 27.2233 29.8124 28.8753 28.5939 30.0939C27.3753 31.3124 25.7233 31.9979 24 32V32Z" fill="#0b0d0d" id="id_106" class=""></path>
<path d="M24 28C23.337 28 22.7011 27.7366 22.2322 27.2678C21.7634 26.7989 21.5 26.163 21.5 25.5C21.5 25.2348 21.3946 24.9804 21.2071 24.7929C21.0196 24.6054 20.7652 24.5 20.5 24.5C20.2348 24.5 19.9804 24.6054 19.7929 24.7929C19.6054 24.9804 19.5 25.2348 19.5 25.5C19.5013 26.6931 19.9759 27.8369 20.8195 28.6805C21.6631 29.5241 22.8069 29.9987 24 30C24.2652 30 24.5196 29.8946 24.7071 29.7071C24.8946 29.5196 25 29.2652 25 29C25 28.7348 24.8946 28.4804 24.7071 28.2929C24.5196 28.1054 24.2652 28 24 28Z" fill="#5a7e85" id="id_107" class=""></path>
<path d="M41 12H35.07C34.9054 12 34.7434 11.9594 34.5982 11.8818C34.4531 11.8042 34.3293 11.6919 34.238 11.555L32.02 8.227C31.5638 7.54153 30.9451 6.97951 30.2192 6.59096C29.4932 6.20241 28.6824 5.9994 27.859 6H20.141C19.3176 5.9994 18.5068 6.20241 17.7808 6.59096C17.0549 6.97951 16.4362 7.54153 15.98 8.227L14 11.2V11C14 10.4696 13.7893 9.96086 13.4142 9.58579C13.0391 9.21072 12.5304 9 12 9H9C8.46957 9 7.96086 9.21072 7.58579 9.58579C7.21071 9.96086 7 10.4696 7 11V12C5.6744 12.0016 4.40356 12.5289 3.46622 13.4662C2.52888 14.4036 2.00159 15.6744 2 17V37C2.00159 38.3256 2.52888 39.5964 3.46622 40.5338C4.40356 41.4711 5.6744 41.9984 7 42H41C42.3256 41.9984 43.5964 41.4711 44.5338 40.5338C45.4711 39.5964 45.9984 38.3256 46 37V17C45.9984 15.6744 45.4711 14.4036 44.5338 13.4662C43.5964 12.5289 42.3256 12.0016 41 12V12ZM9 11H12V12H9V11ZM44 37C44 37.7957 43.6839 38.5587 43.1213 39.1213C42.5587 39.6839 41.7956 40 41 40H7C6.20435 40 5.44129 39.6839 4.87868 39.1213C4.31607 38.5587 4 37.7957 4 37V17C4 16.2044 4.31607 15.4413 4.87868 14.8787C5.44129 14.3161 6.20435 14 7 14H12.93C13.4245 14.0006 13.9116 13.879 14.3477 13.6459C14.7839 13.4128 15.1557 13.0755 15.43 12.664L17.649 9.336C17.9226 8.92563 18.2931 8.58903 18.7277 8.356C19.1624 8.12297 19.6478 8.0007 20.141 8H27.859C28.3535 7.99938 28.8406 8.12102 29.2767 8.35411C29.7129 8.5872 30.0847 8.9245 30.359 9.336L32.578 12.664C32.8516 13.0744 33.2221 13.411 33.6567 13.644C34.0914 13.877 34.5768 13.9993 35.07 14H41C41.7956 14 42.5587 14.3161 43.1213 14.8787C43.6839 15.4413 44 16.2044 44 17V37Z" fill="#ffffff" id="id_108" class=""></path>
</svg>